<svg version="1.1" id="Layer_1" xmlns="http://www.w3.org/2000/svg" xmlns:xlink="http://www.w3.org/1999/xlink" x="0px" y="0px"
	 width="100%" viewBox="0 0 512 512" enable-background="new 0 0 512 512" xml:space="preserve">
<path fill="#0D3980" opacity="1.000000" stroke="none" 
	d="
M1.000001,279.000000 
	C1.000000,278.250000 1.000000,277.500000 1.347699,276.126434 
	C1.807293,275.021606 2.017068,274.540344 2.017136,274.059082 
	C2.022197,237.915482 2.020390,201.771851 1.958455,165.628342 
	C1.956382,164.418350 1.333503,163.209427 0.999999,162.000000 
	C1.000000,161.250000 1.000000,160.500000 1.363151,159.422775 
	C2.167016,158.462524 2.680115,157.867645 3.037053,157.190460 
	C6.019037,151.533051 10.040373,147.310379 17.401472,146.996429 
	C28.968538,147.013992 40.062634,147.045395 51.155880,146.962631 
	C53.065735,146.948395 54.971973,146.448776 56.877113,146.102402 
	C56.874348,146.031448 56.896847,145.891235 57.364487,146.000839 
	C86.574501,146.168961 115.316872,146.227463 144.393860,146.517242 
	C145.550781,146.832321 146.373077,146.989334 147.195404,146.989471 
	C220.048508,147.000626 292.901611,147.003998 365.754700,146.968781 
	C367.192535,146.968094 368.630219,146.505707 370.530670,146.222733 
	C379.624786,146.180084 388.256256,146.193771 396.887604,146.162750 
	C416.964630,146.090576 437.041565,145.996857 457.338806,145.962982 
	C457.559052,146.014084 457.992767,146.142090 458.301025,146.422974 
	C471.440063,146.795563 484.270844,146.887283 497.490417,146.985962 
	C499.697601,147.602814 501.871490,147.775803 503.264191,148.908905 
	C506.700378,151.704636 509.778168,154.940842 513.000000,158.000000 
	C513.000000,198.354233 513.000000,238.708450 512.643311,279.470154 
	C508.561066,285.464081 504.149200,290.097382 496.690430,290.599121 
	C484.299347,290.207336 472.196564,290.097504 460.093628,290.070618 
	C459.392792,290.069061 458.690460,290.741547 457.927124,291.302887 
	C457.713379,291.758789 457.497772,291.933960 456.974487,291.652740 
	C454.751862,291.153351 452.773682,290.931061 450.794983,290.926178 
	C423.850586,290.859375 396.906067,290.822662 369.638000,290.526764 
	C368.659271,290.184357 368.004181,290.014374 367.349060,290.014252 
	C294.567474,290.001373 221.785889,289.995605 149.004333,290.041718 
	C147.595840,290.042603 146.187744,290.662537 144.325043,290.971893 
	C114.894539,291.009430 85.918472,291.068756 56.695778,291.070557 
	C56.286922,290.966248 56.124702,290.919495 55.657688,290.595886 
	C43.313648,290.210846 31.274475,290.086853 19.234991,290.033325 
	C18.506281,290.030090 17.775080,290.587891 16.691431,290.798767 
	C10.250918,289.196014 5.715613,285.746246 2.866018,280.088776 
	C2.594341,279.549377 1.638320,279.354706 1.000001,279.000000 
M96.365028,213.837311 
	C95.618858,214.325668 94.872688,214.814011 94.138275,215.156586 
	C94.138275,215.156586 94.265511,215.228668 93.525787,215.138367 
	C91.448883,216.145035 89.371979,217.151703 86.729233,218.432632 
	C88.462746,219.453430 89.385696,220.121292 90.407707,220.556564 
	C91.131721,220.864929 91.989662,220.858841 93.057228,221.639755 
	C102.997894,227.420837 112.938553,233.201935 123.283012,239.559830 
	C126.197433,241.121933 129.111847,242.684036 132.908005,244.718750 
	C132.908005,240.071030 132.908005,236.520538 132.992096,232.150528 
	C133.749268,231.101318 134.321152,229.795517 135.316772,229.076492 
	C136.273773,228.385391 137.669479,228.301712 139.411774,228.621887 
	C143.476303,228.621887 147.540833,228.621887 151.696594,228.621887 
	C151.696594,221.700607 151.696594,215.150116 151.696594,209.094055 
	C146.255676,209.094055 141.113708,209.094055 135.303116,209.005920 
	C134.858795,208.949631 134.414474,208.893326 133.605652,208.103745 
	C133.287933,203.233673 132.970215,198.363602 132.614609,192.912811 
	C126.200226,196.415405 120.110672,199.740631 113.301949,203.057205 
	C109.132156,205.709732 104.962364,208.362259 100.121841,211.162018 
	C99.098061,212.133575 98.074280,213.105133 97.003166,214.006973 
	C97.003166,214.006973 97.074356,214.052017 96.365028,213.837311 
M347.020721,208.974655 
	C347.020721,208.974655 347.020233,209.052673 346.530640,208.352600 
	C330.905518,208.249542 315.280396,208.136826 299.655090,208.084351 
	C299.119934,208.082550 298.582703,208.684479 298.012787,209.940369 
	C298.026489,215.965179 298.040222,221.990005 298.503662,228.735535 
	C314.013458,228.820648 329.523254,228.918900 345.033173,228.946030 
	C345.697968,228.947189 346.363983,228.291443 347.025208,228.024719 
	C347.025208,228.024719 346.942352,228.031418 347.676483,227.580948 
	C347.432129,221.375351 347.187775,215.169769 347.020721,208.974655 
M395.293060,200.759171 
	C390.798096,198.154373 386.303162,195.549576 381.024597,192.490707 
	C381.024597,197.944672 381.024597,202.390854 380.468811,207.050812 
	C380.258423,207.377090 380.048004,207.703369 379.103027,208.394730 
	C373.575623,208.719833 368.048187,209.044937 362.369598,209.378937 
	C362.369598,215.942398 362.369598,222.270813 362.369598,228.905685 
	C367.833282,228.905685 372.931122,228.905685 378.777649,228.991333 
	C379.526550,229.048569 380.275421,229.105804 381.007996,230.075302 
	C381.007996,234.600327 381.007996,239.125351 381.007996,244.541534 
	C386.045197,241.984711 390.232697,240.045471 394.221069,237.758835 
	C396.323120,236.553680 398.077576,234.742188 400.748260,233.069016 
	C406.558228,229.706604 412.368225,226.344177 418.891968,222.871552 
	C421.617065,221.732346 424.342194,220.593140 427.924835,219.095459 
	C424.508301,216.914398 422.211212,215.447983 419.669342,213.349350 
	C411.755371,209.243073 403.841431,205.136795 395.293060,200.759171 
M216.610352,227.598480 
	C216.414627,221.480392 216.218887,215.362289 215.629196,208.460342 
	C199.802032,208.348907 183.974884,208.231476 168.147522,208.163300 
	C167.780975,208.161713 167.412033,208.715317 167.013474,209.944809 
	C167.028732,215.968018 167.044006,221.991241 167.505585,228.736511 
	C183.094162,228.815903 198.682724,228.903992 214.271393,228.938583 
	C214.820435,228.939804 215.370636,228.409271 216.610352,227.598480 
M281.585144,230.810364 
	C282.041077,229.399536 282.502808,227.990555 282.951996,226.577591 
	C287.143005,213.394608 280.913940,199.731537 267.592957,193.940338 
	C255.874496,188.845840 241.569443,192.529556 234.263367,204.432770 
	C225.855362,218.131256 231.333694,232.663361 240.078491,240.036301 
	C252.585358,250.581131 274.579712,245.247696 281.585144,230.810364 
z"/>
<path fill="#000000" opacity="1.000000" stroke="none" 
	d="
M457.218628,292.030914 
	C457.497772,291.933960 457.713379,291.758789 458.395721,291.262024 
	C471.610260,290.978851 484.294464,290.939026 496.978699,290.899200 
	C504.149200,290.097382 508.561066,285.464081 512.643311,279.938812 
	C513.000000,357.631927 513.000000,435.263885 513.000000,512.947876 
	C342.444366,512.947876 171.888733,512.947876 1.000000,512.947876 
	C1.000000,435.312744 1.000000,357.625031 1.000001,279.468658 
	C1.638320,279.354706 2.594341,279.549377 2.866018,280.088776 
	C5.715613,285.746246 10.250918,289.196014 17.153950,290.859619 
	C30.634212,290.961792 43.298347,290.917267 55.962486,290.872711 
	C56.124702,290.919495 56.286922,290.966248 56.716507,291.451935 
	C62.203472,303.307068 66.574646,315.213776 72.828941,326.031799 
	C83.971436,345.304901 97.880676,362.483215 114.663849,377.399841 
	C126.903671,388.278473 140.078018,397.646698 154.266312,405.613770 
	C182.918213,421.702454 213.975906,429.945099 246.587662,431.849426 
	C269.020111,433.159393 291.237183,430.448334 312.977600,424.508850 
	C330.065796,419.840363 346.497559,413.564758 361.866302,404.628479 
	C376.808533,395.940216 390.778992,385.950348 403.381531,374.103302 
	C417.870636,360.482910 430.508636,345.245300 440.250885,327.955688 
	C446.735382,316.447601 451.618652,304.037354 457.218628,292.030914 
M147.791245,490.476410 
	C147.791245,487.412750 147.791245,484.349060 147.791245,480.530365 
	C140.941269,481.040558 134.552841,481.516357 128.033768,482.899170 
	C128.033768,485.492798 128.033768,488.086456 128.033768,490.830597 
	C134.792755,490.830597 140.916122,490.830597 147.791245,490.476410 
M263.867523,504.957703 
	C266.440277,504.957703 269.013031,504.957703 271.643799,504.957703 
	C271.643799,492.318451 271.643799,480.359161 271.643799,468.149719 
	C268.511536,468.149719 265.732635,468.149719 262.235565,468.572144 
	C262.158417,479.983643 262.064789,491.395081 262.045441,502.806671 
	C262.044281,503.487854 262.637848,504.170044 263.867523,504.957703 
M154.835861,504.973328 
	C157.574890,504.931854 160.313919,504.890381 163.772202,504.427704 
	C163.845337,487.985565 163.930222,471.543427 163.949158,455.101227 
	C163.949921,454.435974 163.327789,453.769989 162.102448,453.000244 
	C159.393326,453.037018 156.684189,453.073792 153.193253,453.468536 
	C153.130264,469.927307 153.056259,486.386078 153.043732,502.844879 
	C153.043213,503.517700 153.620972,504.190948 154.835861,504.973328 
M207.716202,476.340851 
	C205.017075,465.086426 193.122894,464.374298 185.552780,469.485168 
	C180.983200,468.704498 177.869125,468.172485 174.374817,467.575500 
	C174.374817,480.573212 174.374817,492.594421 174.374817,504.686401 
	C177.663940,504.686401 180.576355,504.686401 183.998520,504.686401 
	C183.998520,497.601685 183.963196,490.820679 184.009995,484.040253 
	C184.045547,478.891541 187.508392,474.460724 191.428452,474.403137 
	C195.471664,474.343719 197.986206,477.914734 197.998688,483.788513 
	C198.013397,490.718811 198.002136,497.649200 198.002136,504.846375 
	C201.475159,504.846375 204.269714,504.846375 207.784836,504.426544 
	C207.820709,495.297089 207.856583,486.167603 207.716202,476.340851 
M65.896751,504.965790 
	C68.826317,504.965790 71.755875,504.965790 74.336098,504.965790 
	C74.726028,504.182526 74.858009,504.040558 74.859093,503.897614 
	C74.913338,496.746429 74.922684,489.594727 75.013557,482.444061 
	C75.066223,478.299744 78.200073,474.200500 81.226067,474.145325 
	C84.896393,474.078400 86.981400,477.010925 86.993912,482.335602 
	C87.011375,489.764587 86.998314,497.193604 86.998314,504.627502 
	C90.654938,504.627502 93.699234,504.627502 96.488831,504.627502 
	C97.007912,496.346069 97.440750,488.445953 98.023514,480.556854 
	C98.321136,476.527893 100.791908,474.791046 104.709717,475.014618 
	C108.911209,475.254333 109.045563,478.214478 109.020477,481.404297 
	C108.959488,489.162109 109.000633,496.920715 109.000633,504.847382 
	C112.785797,504.847382 115.919220,504.847382 119.844292,504.517517 
	C119.894814,497.464996 120.019051,490.411743 119.951309,483.360352 
	C119.930756,481.220856 119.379677,479.086395 119.014969,476.170349 
	C117.521927,465.749237 107.395477,463.864777 95.827332,471.855316 
	C89.088882,465.133881 82.720360,465.348755 74.497330,470.309296 
	C72.055672,466.086914 68.121300,468.728058 64.179306,468.473999 
	C64.121269,479.951599 64.047279,491.429169 64.047424,502.906769 
	C64.047432,503.549988 64.658585,504.193207 65.896751,504.965790 
M251.995651,487.498718 
	C251.995651,476.099365 251.995651,464.699982 251.995651,453.281830 
	C248.320099,453.281830 245.405899,453.281830 242.013306,453.281830 
	C242.013306,459.109711 242.013306,464.646606 242.013306,470.924011 
	C236.768661,466.870758 231.540146,466.116089 226.023056,467.519226 
	C213.988602,470.579926 213.653305,492.892029 219.120300,499.553497 
	C225.762192,507.646606 233.130325,508.219879 242.502914,501.783112 
	C244.128937,507.494843 248.309357,504.226654 251.995651,504.843323 
	C251.995651,499.064636 251.995651,493.781342 251.995651,487.498718 
M319.968750,492.074554 
	C320.095612,501.437225 323.389740,505.848541 331.033691,505.948792 
	C334.031830,505.988098 337.056152,504.714935 340.051392,503.970337 
	C341.273956,503.666412 342.567413,502.642761 343.627380,502.873047 
	C347.171051,503.642822 350.623749,504.831360 353.944977,505.810486 
	C353.571289,500.303436 353.164124,496.052795 353.026306,491.793427 
	C352.881073,487.303741 353.016205,482.805573 352.986053,478.311401 
	C352.955963,473.821686 351.262970,470.357452 346.932892,468.457764 
	C341.260986,465.969360 335.464844,466.279572 329.682953,467.751801 
	C324.965607,468.952942 322.404510,472.261444 321.123840,477.905334 
	C325.191650,477.022888 328.900055,481.188660 332.399170,475.798004 
	C333.278564,474.443268 338.030701,475.302704 340.913483,475.738068 
	C341.734497,475.862030 342.239990,478.075134 342.890198,479.330231 
	C340.792969,480.195129 338.745422,481.218506 336.589050,481.894806 
	C330.414001,483.831543 323.359375,484.160309 319.968750,492.074554 
M400.875153,505.868927 
	C406.776062,506.263947 412.447388,505.583649 417.029663,501.432983 
	C423.863281,495.243134 425.106476,483.656097 420.052094,474.953033 
	C416.236725,468.383423 405.380066,464.986511 396.748352,467.661560 
	C388.411713,470.245148 384.390961,477.983978 384.992950,490.287720 
	C385.361084,497.811646 390.980072,503.487823 400.875153,505.868927 
M288.859344,503.955200 
	C294.345612,506.386230 299.978424,506.584351 305.691711,504.953491 
	C311.121490,503.403595 314.977051,497.796631 314.412048,492.333038 
	C312.651062,492.067902 310.844696,491.478790 309.103424,491.631683 
	C307.647186,491.759491 305.375824,492.425812 305.007324,493.423309 
	C303.395844,497.785309 299.468658,497.806366 296.460480,497.396149 
	C292.737762,496.888519 290.865082,493.653931 291.076080,489.609344 
	C291.171082,487.787415 291.054199,485.952148 290.988251,484.124542 
	C290.857422,480.498352 291.034088,476.863953 295.181000,475.531708 
	C298.824249,474.361267 301.899231,474.522980 304.602386,478.499115 
	C305.556122,479.902039 310.196838,478.798370 313.154205,478.839142 
	C312.806396,476.984955 312.733185,475.024170 312.061859,473.295593 
	C309.534424,466.787598 295.985992,464.359375 288.504517,468.963745 
	C277.194092,475.924622 276.969452,495.059204 288.859344,503.955200 
M380.018585,499.382080 
	C379.388977,498.592651 378.715302,497.089966 378.136688,497.125702 
	C373.118439,497.435822 372.980316,494.139740 372.993011,490.606750 
	C373.009705,485.963898 372.997131,481.320984 372.997131,476.536804 
	C375.452850,475.764191 377.600739,475.088440 379.740845,474.415161 
	C379.740845,472.330231 379.740845,470.405975 379.740845,468.101807 
	C372.967957,469.220795 372.506897,465.232117 372.958466,460.359283 
	C373.114777,458.672821 372.826111,456.945160 372.694489,454.312103 
	C368.169312,457.877930 361.747070,458.159729 362.884491,465.408569 
	C362.982758,466.034821 362.330231,466.963287 361.773804,467.478546 
	C357.515350,471.422638 357.833313,474.072601 363.003662,476.355042 
	C363.003662,481.975555 362.835052,487.643677 363.038452,493.298370 
	C363.472015,505.351135 367.957642,507.847534 379.327209,505.074890 
	C379.787689,504.962646 380.221893,504.742584 381.130768,504.396851 
	C380.794830,502.978760 380.467407,501.596710 380.018585,499.382080 
M431.003143,472.681213 
	C431.003143,483.376282 431.003143,494.071350 431.003143,504.618500 
	C434.813965,504.618500 437.718475,504.618500 440.997589,504.618500 
	C440.997589,498.129761 440.933929,492.013977 441.013031,485.900055 
	C441.121246,477.537140 443.692017,475.360291 452.276093,476.632172 
	C453.068817,474.149353 453.883942,471.596313 454.666718,469.144684 
	C447.954224,465.323029 445.474670,465.715576 440.203033,471.155457 
	C440.180176,466.104218 436.375336,468.452118 434.064209,468.048615 
	C431.141510,467.538361 430.841461,469.515961 431.003143,472.681213 
M271.090057,461.759857 
	C271.453613,458.978973 271.817139,456.198120 272.200073,453.268951 
	C268.329834,453.268951 265.418488,453.268951 262.397888,453.268951 
	C262.397888,456.273224 262.397888,458.966339 262.397888,461.946503 
	C265.256104,461.946503 267.727264,461.946503 271.090057,461.759857 
z"/>
<path fill="#000000" opacity="1.000000" stroke="none" 
	d="
M16.928215,146.971680 
	C10.040373,147.310379 6.019037,151.533051 3.037053,157.190460 
	C2.680115,157.867645 2.167016,158.462524 1.363151,159.047775 
	C1.000000,106.361191 1.000000,53.722374 1.000000,1.083562 
	C1.138725,1.055708 1.277449,1.003439 1.416174,1.003436 
	C171.825989,0.999980 342.235809,1.000000 513.000000,1.000000 
	C513.000000,53.020359 513.000000,105.041519 513.000000,157.531342 
	C509.778168,154.940842 506.700378,151.704636 503.264191,148.908905 
	C501.871490,147.775803 499.697601,147.602814 497.262024,146.610687 
	C483.760803,146.199646 470.876801,146.170868 457.992767,146.142090 
	C457.992767,146.142090 457.559052,146.014084 457.289856,145.582001 
	C455.187164,140.437393 453.651093,135.581894 451.466797,131.038010 
	C443.564301,114.598831 434.210571,99.122269 422.633240,84.875389 
	C410.565796,70.025307 396.909149,57.060013 381.511505,45.834126 
	C360.161469,30.268551 336.785553,18.801331 311.064819,12.707895 
	C298.411041,9.710119 285.475281,7.045048 272.545685,6.278882 
	C255.064697,5.243014 237.514114,5.408742 220.038803,8.805384 
	C201.292191,12.449121 183.083954,17.490011 165.871414,25.659748 
	C135.630508,40.013271 110.279778,60.638103 89.591301,86.927231 
	C75.525040,104.801407 64.158379,124.220375 56.896847,145.891235 
	C56.896847,145.891235 56.874348,146.031448 56.423370,146.047119 
	C44.144947,146.040802 32.317383,145.990936 20.490231,146.039673 
	C19.301632,146.044571 18.115496,146.646729 16.928215,146.971680 
z"/>
<path fill="#4C6DA1" opacity="1.000000" stroke="none" 
	d="
M0.999999,162.468658 
	C1.333503,163.209427 1.956382,164.418350 1.958455,165.628342 
	C2.020390,201.771851 2.022197,237.915482 2.017136,274.059082 
	C2.017068,274.540344 1.807293,275.021606 1.347699,275.751434 
	C1.000000,238.312439 1.000000,200.624878 0.999999,162.468658 
z"/>
<path fill="#D50100" opacity="1.000000" stroke="none" 
	d="
M456.974457,291.652740 
	C451.618652,304.037354 446.735382,316.447601 440.250885,327.955688 
	C430.508636,345.245300 417.870636,360.482910 403.381531,374.103302 
	C390.778992,385.950348 376.808533,395.940216 361.866302,404.628479 
	C346.497559,413.564758 330.065796,419.840363 312.977600,424.508850 
	C291.237183,430.448334 269.020111,433.159393 246.587662,431.849426 
	C213.975906,429.945099 182.918213,421.702454 154.266312,405.613770 
	C140.078018,397.646698 126.903671,388.278473 114.663849,377.399841 
	C97.880676,362.483215 83.971436,345.304901 72.828941,326.031799 
	C66.574646,315.213776 62.203472,303.307068 56.963135,291.509460 
	C85.918472,291.068756 114.894539,291.009430 144.458984,291.291626 
	C145.395844,291.909912 145.744293,292.186646 146.085358,292.785828 
	C151.896301,300.411346 157.082092,308.354370 163.676483,314.872284 
	C174.421402,325.492615 187.045013,333.769592 200.768982,340.235229 
	C213.781433,346.365692 227.607422,349.936829 241.741425,351.808929 
	C249.639908,352.855133 257.879059,352.736420 265.808044,351.806732 
	C276.975220,350.497314 288.423126,349.217865 298.993988,345.670105 
	C322.269928,337.858246 342.366302,324.555298 358.524780,305.841522 
	C362.438232,301.309204 365.534973,296.071716 369.249695,291.073181 
	C369.648621,290.918060 369.805115,290.848297 369.961609,290.778503 
	C396.906067,290.822662 423.850586,290.859375 450.794983,290.926178 
	C452.773682,290.931061 454.751862,291.153351 456.974457,291.652740 
z"/>
<path fill="#D50100" opacity="1.000000" stroke="none" 
	d="
M57.364487,146.000839 
	C64.158379,124.220375 75.525040,104.801407 89.591301,86.927231 
	C110.279778,60.638103 135.630508,40.013271 165.871414,25.659748 
	C183.083954,17.490011 201.292191,12.449121 220.038803,8.805384 
	C237.514114,5.408742 255.064697,5.243014 272.545685,6.278882 
	C285.475281,7.045048 298.411041,9.710119 311.064819,12.707895 
	C336.785553,18.801331 360.161469,30.268551 381.511505,45.834126 
	C396.909149,57.060013 410.565796,70.025307 422.633240,84.875389 
	C434.210571,99.122269 443.564301,114.598831 451.466797,131.038010 
	C453.651093,135.581894 455.187164,140.437393 457.069641,145.530884 
	C437.041565,145.996857 416.964630,146.090576 396.887604,146.162750 
	C388.256256,146.193771 379.624786,146.180084 370.269165,146.030853 
	C369.343536,145.797974 369.142059,145.720932 368.771332,145.370697 
	C364.100555,139.265533 360.052307,133.003952 355.010071,127.684517 
	C341.520752,113.453598 325.853180,102.197517 307.520935,94.843033 
	C294.518280,89.626648 281.051849,86.079681 267.130402,85.137039 
	C252.947067,84.176666 238.847824,85.446960 224.928040,88.932755 
	C200.918350,94.945274 180.333160,107.027428 162.735046,124.056877 
	C156.063553,130.512772 150.878555,138.504822 144.768524,145.902756 
	C144.367096,146.101196 144.213165,146.193573 144.059250,146.285965 
	C115.316872,146.227463 86.574501,146.168961 57.364487,146.000839 
z"/>
<path fill="#000000" opacity="1.000000" stroke="none" 
	d="
M281.370392,231.129639 
	C274.579712,245.247696 252.585358,250.581131 240.078491,240.036301 
	C231.333694,232.663361 225.855362,218.131256 234.263367,204.432770 
	C241.569443,192.529556 255.874496,188.845840 267.592957,193.940338 
	C280.913940,199.731537 287.143005,213.394608 282.951996,226.577591 
	C282.502808,227.990555 282.041077,229.399536 281.370392,231.129639 
z"/>
<path fill="#FDFEFE" opacity="1.000000" stroke="none" 
	d="
M138.872406,227.951126 
	C137.669479,228.301712 136.273773,228.385391 135.316772,229.076492 
	C134.321152,229.795517 133.749268,231.101318 132.626892,232.478439 
	C128.249817,233.521835 124.505653,234.643997 122.879219,238.983017 
	C112.938553,233.201935 102.997894,227.420837 93.077332,221.003418 
	C91.930550,218.300491 93.203499,216.788559 94.265511,215.228668 
	C94.265511,215.228668 94.138275,215.156586 94.473701,215.399658 
	C95.564201,215.112503 96.319275,214.582260 97.074356,214.052002 
	C97.074356,214.052017 97.003166,214.006973 97.338058,213.932312 
	C98.712822,212.910019 99.752701,211.962418 100.792572,211.014801 
	C104.962364,208.362259 109.132156,205.709732 113.779045,203.408997 
	C115.758186,203.614746 117.516167,202.896591 118.713295,203.432144 
	C122.035255,204.918274 125.012512,207.186310 128.352692,208.615479 
	C129.962143,209.304123 132.081619,208.800690 133.970154,208.837036 
	C134.414474,208.893326 134.858795,208.949631 135.651459,209.462097 
	C132.970535,217.202332 136.500305,222.226440 142.054825,226.409439 
	C140.774277,227.029785 139.823334,227.490448 138.872406,227.951126 
z"/>
<path fill="#000000" opacity="1.000000" stroke="none" 
	d="
M216.023163,209.244202 
	C216.218887,215.362289 216.414627,221.480392 215.802872,227.808105 
	C199.016678,228.016647 183.037979,228.015549 167.059265,228.014450 
	C167.044006,221.991241 167.028732,215.968018 167.492706,209.474304 
	C183.989014,209.083923 200.006088,209.164062 216.023163,209.244202 
z"/>
<path fill="#FEFEFE" opacity="1.000000" stroke="none" 
	d="
M418.178192,222.981766 
	C412.368225,226.344177 406.558228,229.706604 399.986328,233.042572 
	C398.431183,232.384583 397.638000,231.753021 396.844788,231.121460 
	C397.026978,230.649017 397.209137,230.176590 397.391327,229.704163 
	C394.826477,230.376266 392.295227,231.272690 389.688171,231.663040 
	C386.513214,232.138428 383.284241,232.154892 381.024323,229.163025 
	C380.275421,229.105804 379.526550,229.048569 378.386719,228.590332 
	C377.517609,227.457642 376.489532,226.553162 376.655823,226.023956 
	C377.401794,223.649673 378.967255,221.456345 379.338257,219.058670 
	C379.897705,215.443130 379.708557,211.711777 379.837585,208.029648 
	C380.048004,207.703369 380.258423,207.377090 381.090088,206.919067 
	C382.245941,205.861923 382.780548,204.936523 383.456970,203.765579 
	C384.396179,205.116394 385.078339,206.097549 386.128113,207.607407 
	C388.767334,204.273193 391.421783,201.221909 395.966919,202.007141 
	C395.953766,201.681595 395.940613,201.356064 395.927429,201.030518 
	C403.841431,205.136795 411.755371,209.243073 419.407959,213.646362 
	C417.240601,216.305801 415.334656,218.668228 413.370178,221.103195 
	C415.620422,221.982407 416.899323,222.482086 418.178192,222.981766 
z"/>
<path fill="#000000" opacity="1.000000" stroke="none" 
	d="
M298.053925,228.014816 
	C298.040222,221.990005 298.026489,215.965179 298.493256,209.471039 
	C314.989227,209.018707 331.004730,209.035690 347.020233,209.052673 
	C347.020233,209.052673 347.020721,208.974655 347.012970,209.439926 
	C346.984283,215.947266 346.963318,221.989349 346.942352,228.031418 
	C346.942352,228.031418 347.025208,228.024719 346.556488,228.006790 
	C330.076477,227.997513 314.065216,228.006165 298.053925,228.014816 
z"/>
<path fill="#000000" opacity="1.000000" stroke="none" 
	d="
M379.470306,208.212189 
	C379.708557,211.711777 379.897705,215.443130 379.338257,219.058670 
	C378.967255,221.456345 377.401794,223.649673 376.655823,226.023956 
	C376.489532,226.553162 377.517609,227.457642 378.012390,228.547516 
	C372.931122,228.905685 367.833282,228.905685 362.369598,228.905685 
	C362.369598,222.270813 362.369598,215.942398 362.369598,209.378937 
	C368.048187,209.044937 373.575623,208.719833 379.470306,208.212189 
z"/>
<path fill="#000000" opacity="1.000000" stroke="none" 
	d="
M139.142090,228.286499 
	C139.823334,227.490448 140.774277,227.029785 142.054825,226.409439 
	C136.500305,222.226440 132.970535,217.202332 135.985779,209.506165 
	C141.113708,209.094055 146.255676,209.094055 151.696594,209.094055 
	C151.696594,215.150116 151.696594,221.700607 151.696594,228.621887 
	C147.540833,228.621887 143.476303,228.621887 139.142090,228.286499 
z"/>
<path fill="#345995" opacity="1.000000" stroke="none" 
	d="
M146.092743,292.463379 
	C145.744293,292.186646 145.395844,291.909912 144.913422,291.313416 
	C146.187744,290.662537 147.595840,290.042603 149.004333,290.041718 
	C221.785889,289.995605 294.567474,290.001373 367.349060,290.014252 
	C368.004181,290.014374 368.659271,290.184357 369.638000,290.526764 
	C369.805115,290.848297 369.648621,290.918060 368.785156,291.010681 
	C295.633148,291.022522 223.188049,291.002441 150.743011,291.061676 
	C149.192535,291.062927 147.642822,291.975769 146.092743,292.463379 
z"/>
<path fill="#4E6FA3" opacity="1.000000" stroke="none" 
	d="
M144.393860,146.517242 
	C144.213165,146.193573 144.367096,146.101196 145.229919,145.984314 
	C219.123932,145.972961 292.309052,145.987732 365.494171,145.984451 
	C366.642975,145.984406 367.791809,145.762329 368.940613,145.643875 
	C369.142059,145.720932 369.343536,145.797974 369.806458,146.066864 
	C368.630219,146.505707 367.192535,146.968094 365.754700,146.968781 
	C292.901611,147.003998 220.048508,147.000626 147.195404,146.989471 
	C146.373077,146.989334 145.550781,146.832321 144.393860,146.517242 
z"/>
<path fill="#000000" opacity="1.000000" stroke="none" 
	d="
M133.787903,208.470398 
	C132.081619,208.800690 129.962143,209.304123 128.352692,208.615479 
	C125.012512,207.186310 122.035255,204.918274 118.713295,203.432144 
	C117.516167,202.896591 115.758186,203.614746 114.138626,203.413315 
	C120.110672,199.740631 126.200226,196.415405 132.614609,192.912811 
	C132.970215,198.363602 133.287933,203.233673 133.787903,208.470398 
z"/>
<path fill="#000000" opacity="1.000000" stroke="none" 
	d="
M381.016174,229.619171 
	C383.284241,232.154892 386.513214,232.138428 389.688171,231.663040 
	C392.295227,231.272690 394.826477,230.376266 397.391327,229.704163 
	C397.209137,230.176590 397.026978,230.649017 396.844788,231.121460 
	C397.638000,231.753021 398.431183,232.384583 399.606689,233.110321 
	C398.077576,234.742188 396.323120,236.553680 394.221069,237.758835 
	C390.232697,240.045471 386.045197,241.984711 381.007996,244.541534 
	C381.007996,239.125351 381.007996,234.600327 381.016174,229.619171 
z"/>
<path fill="#000000" opacity="1.000000" stroke="none" 
	d="
M395.610229,200.894836 
	C395.940613,201.356064 395.953766,201.681595 395.966919,202.007141 
	C391.421783,201.221909 388.767334,204.273193 386.128113,207.607407 
	C385.078339,206.097549 384.396179,205.116394 383.456970,203.765579 
	C382.780548,204.936523 382.245941,205.861923 381.367981,206.812164 
	C381.024597,202.390854 381.024597,197.944672 381.024597,192.490707 
	C386.303162,195.549576 390.798096,198.154373 395.610229,200.894836 
z"/>
<path fill="#000000" opacity="1.000000" stroke="none" 
	d="
M123.081116,239.271423 
	C124.505653,234.643997 128.249817,233.521835 132.584839,232.888214 
	C132.908005,236.520538 132.908005,240.071030 132.908005,244.718750 
	C129.111847,242.684036 126.197433,241.121933 123.081116,239.271423 
z"/>
<path fill="#000000" opacity="1.000000" stroke="none" 
	d="
M418.535095,222.926666 
	C416.899323,222.482086 415.620422,221.982407 413.370178,221.103195 
	C415.334656,218.668228 417.240601,216.305801 419.530334,213.962463 
	C422.211212,215.447983 424.508301,216.914398 427.924835,219.095459 
	C424.342194,220.593140 421.617065,221.732346 418.535095,222.926666 
z"/>
<path fill="#8EA4C5" opacity="1.000000" stroke="none" 
	d="
M167.282425,228.375488 
	C183.037979,228.015549 199.016678,228.016647 215.457840,228.072159 
	C215.370636,228.409271 214.820435,228.939804 214.271393,228.938583 
	C198.682724,228.903992 183.094162,228.815903 167.282425,228.375488 
z"/>
<path fill="#8BA3C5" opacity="1.000000" stroke="none" 
	d="
M298.278809,228.375183 
	C314.065216,228.006165 330.076477,227.997513 346.558594,227.965302 
	C346.363983,228.291443 345.697968,228.947189 345.033173,228.946030 
	C329.523254,228.918900 314.013458,228.820648 298.278809,228.375183 
z"/>
<path fill="#6985B0" opacity="1.000000" stroke="none" 
	d="
M346.775452,208.702637 
	C331.004730,209.035690 314.989227,209.018707 298.510071,209.003357 
	C298.582703,208.684479 299.119934,208.082550 299.655090,208.084351 
	C315.280396,208.136826 330.905518,208.249542 346.775452,208.702637 
z"/>
<path fill="#6985B0" opacity="1.000000" stroke="none" 
	d="
M215.826172,208.852264 
	C200.006088,209.164062 183.989014,209.083923 167.508057,209.006866 
	C167.412033,208.715317 167.780975,208.161713 168.147522,208.163300 
	C183.974884,208.231476 199.802032,208.348907 215.826172,208.852264 
z"/>
<path fill="#4E6FA3" opacity="1.000000" stroke="none" 
	d="
M17.401474,146.996429 
	C18.115496,146.646729 19.301632,146.044571 20.490231,146.039673 
	C32.317383,145.990936 44.144947,146.040802 56.426140,146.118073 
	C54.971973,146.448776 53.065735,146.948395 51.155880,146.962631 
	C40.062634,147.045395 28.968538,147.013992 17.401474,146.996429 
z"/>
<path fill="#4E6FA3" opacity="1.000000" stroke="none" 
	d="
M458.301025,146.422974 
	C470.876801,146.170868 483.760803,146.199646 496.873230,146.603699 
	C484.270844,146.887283 471.440063,146.795563 458.301025,146.422974 
z"/>
<path fill="#355A96" opacity="1.000000" stroke="none" 
	d="
M496.690430,290.599121 
	C484.294464,290.939026 471.610260,290.978851 458.457458,291.059509 
	C458.690460,290.741547 459.392792,290.069061 460.093628,290.070618 
	C472.196564,290.097504 484.299347,290.207336 496.690430,290.599121 
z"/>
<path fill="#345995" opacity="1.000000" stroke="none" 
	d="
M55.657688,290.595886 
	C43.298347,290.917267 30.634212,290.961792 17.507557,290.945496 
	C17.775080,290.587891 18.506281,290.030090 19.234991,290.033325 
	C31.274475,290.086853 43.313648,290.210846 55.657688,290.595886 
z"/>
<path fill="#000000" opacity="1.000000" stroke="none" 
	d="
M93.895645,215.183517 
	C93.203499,216.788559 91.930550,218.300491 92.942627,220.680084 
	C91.989662,220.858841 91.131721,220.864929 90.407707,220.556564 
	C89.385696,220.121292 88.462746,219.453430 86.729233,218.432632 
	C89.371979,217.151703 91.448883,216.145035 93.895645,215.183517 
z"/>
<path fill="#8BA3C5" opacity="1.000000" stroke="none" 
	d="
M347.309418,227.806183 
	C346.963318,221.989349 346.984283,215.947266 346.974304,209.434692 
	C347.187775,215.169769 347.432129,221.375351 347.309418,227.806183 
z"/>
<path fill="#000000" opacity="1.000000" stroke="none" 
	d="
M100.457207,211.088409 
	C99.752701,211.962418 98.712822,212.910019 97.361725,213.967163 
	C98.074280,213.105133 99.098061,212.133575 100.457207,211.088409 
z"/>
<path fill="#000000" opacity="1.000000" stroke="none" 
	d="
M96.719688,213.944656 
	C96.319275,214.582260 95.564201,215.112503 94.467819,215.472549 
	C94.872688,214.814011 95.618858,214.325668 96.719688,213.944656 
z"/>
<path fill="#D50302" opacity="1.000000" stroke="none" 
	d="
M119.052643,504.847382 
	C115.919220,504.847382 112.785797,504.847382 109.000633,504.847382 
	C109.000633,496.920715 108.959488,489.162109 109.020477,481.404297 
	C109.045563,478.214478 108.911209,475.254333 104.709717,475.014618 
	C100.791908,474.791046 98.321136,476.527893 98.023514,480.556854 
	C97.440750,488.445953 97.007912,496.346069 96.488831,504.627502 
	C93.699234,504.627502 90.654938,504.627502 86.998314,504.627502 
	C86.998314,497.193604 87.011375,489.764587 86.993912,482.335602 
	C86.981400,477.010925 84.896393,474.078400 81.226067,474.145325 
	C78.200073,474.200500 75.066223,478.299744 75.013557,482.444061 
	C74.922684,489.594727 74.913338,496.746429 74.859093,503.897614 
	C74.858009,504.040558 74.726028,504.182526 74.336098,504.965790 
	C71.755875,504.965790 68.826317,504.965790 65.444305,504.443970 
	C64.987541,492.001770 64.983223,480.081390 64.978912,468.160980 
	C68.121300,468.728058 72.055672,466.086914 74.497330,470.309296 
	C82.720360,465.348755 89.088882,465.133881 95.827332,471.855316 
	C107.395477,463.864777 117.521927,465.749237 118.985199,477.029175 
	C118.987831,486.874451 119.020241,495.860901 119.052643,504.847382 
z"/>
<path fill="#0F3B81" opacity="1.000000" stroke="none" 
	d="
M251.995651,487.998383 
	C251.995651,493.781342 251.995651,499.064636 251.995651,504.843323 
	C248.309357,504.226654 244.128937,507.494843 242.502914,501.783112 
	C233.130325,508.219879 225.762192,507.646606 219.120300,499.553497 
	C213.653305,492.892029 213.988602,470.579926 226.023056,467.519226 
	C231.540146,466.116089 236.768661,466.870758 242.013306,470.924011 
	C242.013306,464.646606 242.013306,459.109711 242.013306,453.281830 
	C245.405899,453.281830 248.320099,453.281830 251.995651,453.281830 
	C251.995651,464.699982 251.995651,476.099365 251.995651,487.998383 
M242.002258,488.274170 
	C241.986450,486.281525 242.620911,483.956085 241.809525,482.370575 
	C240.432007,479.678680 238.605087,476.315582 236.124924,475.308563 
	C232.731155,473.930634 228.398697,475.118042 227.413269,479.466583 
	C226.546005,483.293823 226.686630,487.443207 226.960846,491.410339 
	C227.265305,495.814758 229.848969,498.405670 234.530273,497.917084 
	C239.133011,497.436768 241.562027,494.438812 242.002258,488.274170 
z"/>
<path fill="#103B82" opacity="1.000000" stroke="none" 
	d="
M320.064575,491.679810 
	C323.359375,484.160309 330.414001,483.831543 336.589050,481.894806 
	C338.745422,481.218506 340.792969,480.195129 342.890198,479.330231 
	C342.239990,478.075134 341.734497,475.862030 340.913483,475.738068 
	C338.030701,475.302704 333.278564,474.443268 332.399170,475.798004 
	C328.900055,481.188660 325.191650,477.022888 321.123840,477.905334 
	C322.404510,472.261444 324.965607,468.952942 329.682953,467.751801 
	C335.464844,466.279572 341.260986,465.969360 346.932892,468.457764 
	C351.262970,470.357452 352.955963,473.821686 352.986053,478.311401 
	C353.016205,482.805573 352.881073,487.303741 353.026306,491.793427 
	C353.164124,496.052795 353.571289,500.303436 353.944977,505.810486 
	C350.623749,504.831360 347.171051,503.642822 343.627380,502.873047 
	C342.567413,502.642761 341.273956,503.666412 340.051392,503.970337 
	C337.056152,504.714935 334.031830,505.988098 331.033691,505.948792 
	C323.389740,505.848541 320.095612,501.437225 320.064575,491.679810 
M338.253113,497.941681 
	C343.219238,496.388153 343.612030,492.808228 342.329773,487.619904 
	C338.981995,488.530884 335.575165,489.035950 332.611389,490.461884 
	C331.337616,491.074799 330.043701,493.917023 330.467285,495.167877 
	C330.919525,496.503448 333.333588,497.273010 335.002869,498.049805 
	C335.670532,498.360474 336.636444,498.030090 338.253113,497.941681 
z"/>
<path fill="#0F3B81" opacity="1.000000" stroke="none" 
	d="
M400.494568,505.715820 
	C390.980072,503.487823 385.361084,497.811646 384.992950,490.287720 
	C384.390961,477.983978 388.411713,470.245148 396.748352,467.661560 
	C405.380066,464.986511 416.236725,468.383423 420.052094,474.953033 
	C425.106476,483.656097 423.863281,495.243134 417.029663,501.432983 
	C412.447388,505.583649 406.776062,506.263947 400.494568,505.715820 
M408.135132,476.069489 
	C399.683624,472.933594 393.831146,478.659729 395.011383,488.909882 
	C395.528442,493.400452 399.088562,497.758942 402.253937,497.776520 
	C408.254761,497.809845 412.453552,494.223938 412.991486,488.574768 
	C413.436035,483.906006 412.395691,479.732758 408.135132,476.069489 
z"/>
<path fill="#0E3A81" opacity="1.000000" stroke="none" 
	d="
M207.064270,504.846375 
	C204.269714,504.846375 201.475159,504.846375 198.002136,504.846375 
	C198.002136,497.649200 198.013397,490.718811 197.998688,483.788513 
	C197.986206,477.914734 195.471664,474.343719 191.428452,474.403137 
	C187.508392,474.460724 184.045547,478.891541 184.009995,484.040253 
	C183.963196,490.820679 183.998520,497.601685 183.998520,504.686401 
	C180.576355,504.686401 177.663940,504.686401 174.374817,504.686401 
	C174.374817,492.594421 174.374817,480.573212 174.374817,467.575500 
	C177.869125,468.172485 180.983200,468.704498 185.552780,469.485168 
	C193.122894,464.374298 205.017075,465.086426 207.494385,476.968201 
	C207.203140,486.679169 207.133713,495.762756 207.064270,504.846375 
z"/>
<path fill="#103B82" opacity="1.000000" stroke="none" 
	d="
M288.517090,503.773682 
	C276.969452,495.059204 277.194092,475.924622 288.504517,468.963745 
	C295.985992,464.359375 309.534424,466.787598 312.061859,473.295593 
	C312.733185,475.024170 312.806396,476.984955 313.154175,478.839142 
	C310.196838,478.798370 305.556122,479.902039 304.602386,478.499115 
	C301.899231,474.522980 298.824249,474.361267 295.181000,475.531708 
	C291.034088,476.863953 290.857422,480.498352 290.988251,484.124542 
	C291.054199,485.952148 291.171082,487.787415 291.076080,489.609344 
	C290.865082,493.653931 292.737762,496.888519 296.460480,497.396149 
	C299.468658,497.806366 303.395844,497.785309 305.007324,493.423309 
	C305.375824,492.425812 307.647186,491.759491 309.103424,491.631683 
	C310.844696,491.478790 312.651062,492.067902 314.412048,492.333038 
	C314.977051,497.796631 311.121490,503.403595 305.691711,504.953491 
	C299.978424,506.584351 294.345612,506.386230 288.517090,503.773682 
z"/>
<path fill="#0E3A81" opacity="1.000000" stroke="none" 
	d="
M380.079285,499.798370 
	C380.467407,501.596710 380.794830,502.978760 381.130768,504.396851 
	C380.221893,504.742584 379.787689,504.962646 379.327209,505.074890 
	C367.957642,507.847534 363.472015,505.351135 363.038452,493.298370 
	C362.835052,487.643677 363.003662,481.975555 363.003662,476.355042 
	C357.833313,474.072601 357.515350,471.422638 361.773804,467.478546 
	C362.330231,466.963287 362.982758,466.034821 362.884491,465.408569 
	C361.747070,458.159729 368.169312,457.877930 372.694489,454.312103 
	C372.826111,456.945160 373.114777,458.672821 372.958466,460.359283 
	C372.506897,465.232117 372.967957,469.220795 379.740845,468.101807 
	C379.740845,470.405975 379.740845,472.330231 379.740845,474.415161 
	C377.600739,475.088440 375.452850,475.764191 372.997131,476.536804 
	C372.997131,481.320984 373.009705,485.963898 372.993011,490.606750 
	C372.980316,494.139740 373.118439,497.435822 378.136688,497.125702 
	C378.715302,497.089966 379.388977,498.592651 380.079285,499.798370 
z"/>
<path fill="#0E3A81" opacity="1.000000" stroke="none" 
	d="
M431.003601,472.207214 
	C430.841461,469.515961 431.141510,467.538361 434.064209,468.048615 
	C436.375336,468.452118 440.180176,466.104218 440.203033,471.155457 
	C445.474670,465.715576 447.954224,465.323029 454.666718,469.144684 
	C453.883942,471.596313 453.068817,474.149353 452.276093,476.632172 
	C443.692017,475.360291 441.121246,477.537140 441.013031,485.900055 
	C440.933929,492.013977 440.997589,498.129761 440.997589,504.618500 
	C437.718475,504.618500 434.813965,504.618500 431.003143,504.618500 
	C431.003143,494.071350 431.003143,483.376282 431.003601,472.207214 
z"/>
<path fill="#0D3980" opacity="1.000000" stroke="none" 
	d="
M153.975067,453.110535 
	C156.684189,453.073792 159.393326,453.037018 162.544220,453.512634 
	C163.008316,470.966309 163.030624,487.907623 163.052948,504.848907 
	C160.313919,504.890381 157.574890,504.931854 154.407043,504.460510 
	C153.977158,487.001953 153.976120,470.056244 153.975067,453.110535 
z"/>
<path fill="#0D3980" opacity="1.000000" stroke="none" 
	d="
M262.953735,468.149719 
	C265.732635,468.149719 268.511536,468.149719 271.643799,468.149719 
	C271.643799,480.359161 271.643799,492.318451 271.643799,504.957703 
	C269.013031,504.957703 266.440277,504.957703 263.427246,504.448120 
	C262.975891,492.008942 262.964813,480.079315 262.953735,468.149719 
z"/>
<path fill="#D50100" opacity="1.000000" stroke="none" 
	d="
M147.039490,490.830597 
	C140.916122,490.830597 134.792755,490.830597 128.033768,490.830597 
	C128.033768,488.086456 128.033768,485.492798 128.555939,482.448975 
	C134.955826,481.998749 140.833542,481.998749 147.039490,481.998749 
	C147.039490,485.557434 147.039490,488.194031 147.039490,490.830597 
z"/>
<path fill="#0F3B81" opacity="1.000000" stroke="none" 
	d="
M270.644226,461.853180 
	C267.727264,461.946503 265.256104,461.946503 262.397888,461.946503 
	C262.397888,458.966339 262.397888,456.273224 262.397888,453.268951 
	C265.418488,453.268951 268.329834,453.268951 272.200073,453.268951 
	C271.817139,456.198120 271.453613,458.978973 270.644226,461.853180 
z"/>
<path fill="#3B5F99" opacity="1.000000" stroke="none" 
	d="
M163.412567,504.638306 
	C163.030624,487.907623 163.008316,470.966309 162.990936,453.564697 
	C163.327789,453.769989 163.949921,454.435974 163.949158,455.101227 
	C163.930222,471.543427 163.845337,487.985565 163.412567,504.638306 
z"/>
<path fill="#6E88B3" opacity="1.000000" stroke="none" 
	d="
M153.584167,453.289551 
	C153.976120,470.056244 153.977158,487.001953 153.953766,504.405823 
	C153.620972,504.190948 153.043213,503.517700 153.043732,502.844879 
	C153.056259,486.386078 153.130264,469.927307 153.584167,453.289551 
z"/>
<path fill="#E87473" opacity="1.000000" stroke="none" 
	d="
M64.579109,468.317505 
	C64.983223,480.081390 64.987541,492.001770 64.988571,504.379303 
	C64.658585,504.193207 64.047432,503.549988 64.047424,502.906769 
	C64.047279,491.429169 64.121269,479.951599 64.579109,468.317505 
z"/>
<path fill="#355A96" opacity="1.000000" stroke="none" 
	d="
M262.594666,468.360931 
	C262.964813,480.079315 262.975891,492.008942 262.970825,504.395142 
	C262.637848,504.170044 262.044281,503.487854 262.045441,502.806671 
	C262.064789,491.395081 262.158417,479.983643 262.594666,468.360931 
z"/>
<path fill="#DD302F" opacity="1.000000" stroke="none" 
	d="
M147.415375,490.653503 
	C147.039490,488.194031 147.039490,485.557434 147.039490,481.998749 
	C140.833542,481.998749 134.955826,481.998749 128.621277,481.995453 
	C134.552841,481.516357 140.941269,481.040558 147.791245,480.530365 
	C147.791245,484.349060 147.791245,487.412750 147.415375,490.653503 
z"/>
<path fill="#ED8F8E" opacity="1.000000" stroke="none" 
	d="
M119.448471,504.682434 
	C119.020241,495.860901 118.987831,486.874451 119.013504,477.418823 
	C119.379677,479.086395 119.930756,481.220856 119.951309,483.360352 
	C120.019051,490.411743 119.894814,497.464996 119.448471,504.682434 
z"/>
<path fill="#48699F" opacity="1.000000" stroke="none" 
	d="
M207.424561,504.636475 
	C207.133713,495.762756 207.203140,486.679169 207.582520,477.316833 
	C207.856583,486.167603 207.820709,495.297089 207.424561,504.636475 
z"/>
<path fill="#000000" opacity="1.000000" stroke="none" 
	d="
M146.085358,292.785828 
	C147.642822,291.975769 149.192535,291.062927 150.743011,291.061676 
	C223.188049,291.002441 295.633148,291.022522 368.542725,291.096008 
	C365.534973,296.071716 362.438232,301.309204 358.524780,305.841522 
	C342.366302,324.555298 322.269928,337.858246 298.993988,345.670105 
	C288.423126,349.217865 276.975220,350.497314 265.808044,351.806732 
	C257.879059,352.736420 249.639908,352.855133 241.741425,351.808929 
	C227.607422,349.936829 213.781433,346.365692 200.768982,340.235229 
	C187.045013,333.769592 174.421402,325.492615 163.676483,314.872284 
	C157.082092,308.354370 151.896301,300.411346 146.085358,292.785828 
z"/>
<path fill="#000000" opacity="1.000000" stroke="none" 
	d="
M368.771332,145.370697 
	C367.791809,145.762329 366.642975,145.984406 365.494171,145.984451 
	C292.309052,145.987732 219.123932,145.972961 145.477417,145.878265 
	C150.878555,138.504822 156.063553,130.512772 162.735046,124.056877 
	C180.333160,107.027428 200.918350,94.945274 224.928040,88.932755 
	C238.847824,85.446960 252.947067,84.176666 267.130402,85.137039 
	C281.051849,86.079681 294.518280,89.626648 307.520935,94.843033 
	C325.853180,102.197517 341.520752,113.453598 355.010071,127.684517 
	C360.052307,133.003952 364.100555,139.265533 368.771332,145.370697 
z"/>
<path fill="#000000" opacity="1.000000" stroke="none" 
	d="
M241.998657,488.717957 
	C241.562027,494.438812 239.133011,497.436768 234.530273,497.917084 
	C229.848969,498.405670 227.265305,495.814758 226.960846,491.410339 
	C226.686630,487.443207 226.546005,483.293823 227.413269,479.466583 
	C228.398697,475.118042 232.731155,473.930634 236.124924,475.308563 
	C238.605087,476.315582 240.432007,479.678680 241.809525,482.370575 
	C242.620911,483.956085 241.986450,486.281525 241.998657,488.717957 
z"/>
<path fill="#000000" opacity="1.000000" stroke="none" 
	d="
M337.859863,497.966614 
	C336.636444,498.030090 335.670532,498.360474 335.002869,498.049805 
	C333.333588,497.273010 330.919525,496.503448 330.467285,495.167877 
	C330.043701,493.917023 331.337616,491.074799 332.611389,490.461884 
	C335.575165,489.035950 338.981995,488.530884 342.329773,487.619904 
	C343.612030,492.808228 343.219238,496.388153 337.859863,497.966614 
z"/>
<path fill="#000000" opacity="1.000000" stroke="none" 
	d="
M408.482361,476.250763 
	C412.395691,479.732758 413.436035,483.906006 412.991486,488.574768 
	C412.453552,494.223938 408.254761,497.809845 402.253937,497.776520 
	C399.088562,497.758942 395.528442,493.400452 395.011383,488.909882 
	C393.831146,478.659729 399.683624,472.933594 408.482361,476.250763 
z"/>
</svg>